<?xml version="1.0" standalone="no"?>
<!DOCTYPE svg PUBLIC "-//W3C//DTD SVG 20010904//EN"
 "http://www.w3.org/TR/2001/REC-SVG-20010904/DTD/svg10.dtd">
<svg version="1.0" xmlns="http://www.w3.org/2000/svg"
 width="120.000000pt" height="120.000000pt" viewBox="0 0 120.000000 120.000000"
 preserveAspectRatio="xMidYMid meet">
<metadata>
Created by potrace 1.14, written by Peter Selinger 2001-2017
</metadata>
<g transform="translate(0.000000,120.000000) scale(0.100000,-0.100000)"
fill="#000000" stroke="none">
<path d="M661 1085 c-66 -32 -112 -63 -158 -107 -51 -50 -66 -59 -73 -48 -6
10 -10 11 -10 3 0 -15 21 -31 195 -142 196 -125 181 -109 144 -151 l-31 -34
-18 24 -19 25 -10 -27 c-5 -14 -23 -33 -40 -41 -28 -14 -29 -14 -19 3 7 10 17
16 25 13 7 -3 16 3 20 13 4 10 2 19 -5 22 -8 2 -8 11 -1 28 12 34 2 70 -28 94
-33 26 -45 25 -82 -6 -24 -20 -34 -23 -48 -15 -17 10 -16 11 3 17 29 8 50 52
28 61 -8 3 -25 0 -37 -6 -72 -38 -71 -37 -74 -97 -3 -43 1 -62 13 -75 22 -25
55 -24 87 2 23 17 30 18 49 7 l23 -13 -22 -3 c-24 -4 -53 -37 -53 -60 0 -10
11 -13 39 -10 22 2 37 0 35 -4 -3 -5 -19 -8 -36 -8 -27 0 -85 34 -218 128 -17
12 -21 10 -39 -27 -23 -43 -138 -127 -218 -157 -24 -9 -43 -20 -43 -25 0 -5
-7 -6 -15 -3 -20 8 -20 -28 1 -72 11 -22 32 -43 58 -56 75 -38 130 -81 228
-176 89 -87 99 -94 115 -81 149 124 194 166 228 210 22 28 52 65 68 82 15 18
27 37 27 44 0 15 9 16 29 4 10 -6 27 -1 55 17 48 30 73 31 92 3 8 -11 20 -18
27 -15 7 2 18 -9 25 -25 11 -25 10 -33 -8 -62 -11 -19 -28 -49 -37 -67 -10
-19 -22 -31 -30 -28 -7 3 -13 -1 -13 -9 0 -8 -4 -15 -10 -15 -5 0 -10 -11 -10
-25 0 -18 5 -25 19 -25 11 0 23 5 26 10 11 19 25 10 39 -25 8 -19 20 -35 25
-35 6 0 26 14 45 31 l35 30 15 -29 c14 -27 43 -48 53 -38 10 10 -28 65 -41 60
-19 -7 -36 26 -36 71 0 21 -4 34 -10 30 -5 -3 -7 -20 -3 -37 4 -22 3 -29 -6
-24 -6 4 -14 0 -18 -11 -13 -37 -53 -38 -53 -2 0 10 -5 19 -11 19 -12 0 -6 23
24 92 16 37 26 48 43 48 12 0 29 7 37 15 13 12 17 12 32 -5 10 -11 26 -20 35
-20 19 0 50 30 50 48 0 17 -18 15 -28 -4 -19 -35 -79 15 -65 53 3 7 15 13 28
13 30 0 48 23 39 52 l-7 23 -8 -22 c-8 -22 -39 -23 -39 -2 0 5 -6 9 -13 9 -7
0 -22 8 -33 18 -50 43 -58 43 -105 0 -24 -22 -45 -36 -47 -30 -2 6 -26 0 -58
-15 -30 -14 -58 -22 -61 -19 -4 4 8 21 26 40 20 21 29 36 22 40 -16 10 -14 26
3 26 8 0 31 26 51 59 41 66 86 93 195 115 l65 13 2 74 2 74 -64 54 c-83 70
-181 135 -224 150 -58 19 -94 13 -190 -34z m203 -15 c65 -32 91 -57 76 -74 -9
-11 -9 -20 1 -38 16 -29 20 -50 8 -42 -5 3 -9 1 -9 -4 0 -15 -88 -73 -95 -62
-4 6 -12 5 -21 -5 -10 -10 -28 -14 -50 -11 -32 3 -44 11 -99 59 -23 21 -95 53
-110 49 -5 -1 18 25 53 58 34 33 57 60 51 60 -32 0 8 15 54 21 88 11 99 10
141 -11z m157 -198 c-46 -26 -106 -67 -133 -90 -56 -51 -65 -43 -10 10 34 34
194 127 217 128 6 0 -28 -21 -74 -48z m-526 -172 c3 -5 -1 -10 -9 -10 -9 0
-16 5 -16 10 0 6 4 10 9 10 6 0 13 -4 16 -10z m113 -14 c3 -15 1 -16 -17 -5
-11 7 -17 17 -14 22 8 13 28 2 31 -17z m-145 -180 c94 -65 107 -79 87 -91 -5
-3 -7 -12 -4 -19 3 -9 -17 -27 -55 -51 l-61 -37 -36 22 c-23 15 -44 20 -62 17
-21 -4 -37 3 -71 31 -25 21 -51 42 -59 48 -12 9 -12 14 -1 33 12 20 12 24 -4
36 -18 13 -18 14 1 24 13 7 22 7 30 -1 8 -8 23 -3 56 16 25 14 48 31 51 37 9
14 16 11 128 -65z m-173 60 c0 -2 -7 -7 -16 -10 -8 -3 -12 -2 -9 4 6 10 25 14
25 6z m725 -37 c17 -11 38 -22 48 -25 21 -8 21 -18 0 -54 -29 -50 -58 -46 -56
8 1 9 -3 10 -11 2 -16 -12 -26 -3 -26 23 0 19 -1 20 -20 2 -17 -15 -20 -16
-20 -3 0 17 37 68 48 67 4 0 21 -9 37 -20z m-929 -85 c18 -14 18 -14 -6 -3
-31 14 -36 19 -24 19 6 0 19 -7 30 -16z m91 -60 c32 -26 85 -73 118 -105 l61
-59 83 45 c46 24 108 63 138 86 30 22 57 39 60 36 13 -14 -242 -177 -276 -177
-8 0 -56 40 -105 88 -50 48 -104 98 -121 110 -16 12 -27 22 -23 22 4 0 33 -21
65 -46z m194 -91 c13 -16 12 -17 -3 -4 -17 13 -22 21 -14 21 2 0 10 -8 17 -17z"/>
<path d="M795 1060 c-3 -5 -2 -10 4 -10 5 0 13 5 16 10 3 6 2 10 -4 10 -5 0
-13 -4 -16 -10z"/>
<path d="M731 1043 c-14 -9 -21 -11 -17 -5 4 7 3 12 -2 12 -11 0 -38 -30 -35
-39 2 -3 -3 -6 -10 -6 -7 0 -26 -11 -42 -23 -24 -19 -27 -25 -15 -32 8 -6 19
-10 23 -10 4 0 21 -10 36 -21 16 -12 34 -18 41 -14 8 5 1 14 -19 26 -17 10
-31 23 -31 28 0 5 24 30 53 55 53 46 61 60 18 29z"/>
<path d="M713 1004 c-27 -20 -29 -42 -6 -60 13 -9 22 -9 30 -2 7 6 13 7 13 4
0 -4 9 2 21 13 44 41 -7 81 -58 45z"/>
<path d="M875 957 c-34 -19 -57 -48 -37 -47 10 1 65 50 61 55 -2 2 -13 -1 -24
-8z"/>
<path d="M915 940 c-3 -5 -2 -10 4 -10 5 0 13 5 16 10 3 6 2 10 -4 10 -5 0
-13 -4 -16 -10z"/>
<path d="M789 887 c-9 -7 -14 -18 -11 -25 3 -10 8 -9 23 4 32 28 21 47 -12 21z"/>
<path d="M350 506 c-46 -15 -55 -52 -14 -62 38 -10 78 7 82 33 5 31 -25 44
-68 29z m40 -26 c0 -13 -11 -13 -30 0 -12 8 -11 10 8 10 12 0 22 -4 22 -10z"/>
<path d="M441 424 c-83 -51 -85 -61 -3 -18 39 20 72 41 72 46 0 13 -11 8 -69
-28z"/>
<path d="M230 430 c0 -5 7 -7 15 -4 8 4 15 8 15 10 0 2 -7 4 -15 4 -8 0 -15
-4 -15 -10z"/>
<path d="M400 340 c0 -5 4 -10 9 -10 6 0 13 5 16 10 3 6 -1 10 -9 10 -9 0 -16
-4 -16 -10z"/>
<path d="M20 1070 c0 -10 11 -32 25 -48 14 -17 25 -35 25 -41 0 -6 12 -11 28
-12 22 -1 19 -3 -16 -13 -56 -14 -70 -38 -40 -65 12 -12 27 -21 34 -21 7 0 14
-5 16 -12 3 -7 28 5 66 30 33 23 64 42 67 42 14 0 -9 -20 -75 -65 -75 -51 -88
-75 -41 -75 16 0 31 -5 33 -12 3 -7 34 19 71 57 56 58 67 66 64 45 -2 -14 -13
-29 -25 -35 -12 -5 -22 -18 -22 -27 0 -10 -7 -18 -15 -18 -20 0 -75 -49 -75
-67 0 -16 32 -17 48 -1 9 9 13 4 18 -20 8 -39 26 -41 61 -6 24 24 25 27 9 36
-13 7 -23 5 -38 -9 -15 -13 -10 2 18 54 52 98 85 107 53 13 -9 -26 -9 -34 2
-41 24 -15 26 -10 22 39 -4 42 -1 52 31 93 37 49 56 99 37 99 -6 0 -11 -4 -11
-10 0 -5 -5 -10 -11 -10 -5 0 -7 5 -4 10 3 6 1 10 -5 10 -6 0 -8 5 -5 10 3 6
-2 10 -12 10 -14 1 -13 4 7 15 29 17 22 19 -14 5 -19 -7 -24 -6 -20 3 3 9 -22
13 -98 13 -77 1 -116 7 -155 22 -51 19 -53 19 -53 2z m250 -70 c-19 -10 -37
-16 -39 -14 -8 8 34 33 54 33 15 0 11 -5 -15 -19z m50 -20 c-8 -6 -24 -16 -35
-22 -20 -11 -20 -11 -1 11 11 11 26 21 35 21 14 0 14 -2 1 -10z m30 -13 c0 -2
-14 -16 -32 -33 l-31 -29 23 33 c20 27 40 42 40 29z m30 -34 c0 -5 -12 -16
-25 -26 l-25 -18 12 26 c10 23 38 36 38 18z"/>
<path d="M396 882 c-5 -18 -5 -36 -2 -39 7 -7 19 43 13 59 -2 7 -7 -2 -11 -20z"/>
<path d="M360 805 c0 -8 2 -15 4 -15 2 0 6 7 10 15 3 8 1 15 -4 15 -6 0 -10
-7 -10 -15z"/>
<path d="M810 365 c-13 -14 -31 -25 -41 -25 -17 0 -33 -36 -23 -52 3 -4 16 -8
29 -8 19 0 26 7 31 28 4 15 13 38 21 50 20 33 11 37 -17 7z"/>
<path d="M880 339 c0 -5 5 -7 10 -4 6 3 10 8 10 11 0 2 -4 4 -10 4 -5 0 -10
-5 -10 -11z"/>
<path d="M1041 314 c0 -11 3 -14 6 -6 3 7 2 16 -1 19 -3 4 -6 -2 -5 -13z"/>
<path d="M844 293 c-16 -15 -32 -27 -36 -26 -4 2 -8 -8 -8 -22 0 -18 5 -25 19
-25 27 0 52 11 46 20 -3 4 0 22 6 39 15 43 7 48 -27 14z"/>
</g>
</svg>
