<svg xmlns="http://www.w3.org/2000/svg" xmlns:xlink="http://www.w3.org/1999/xlink" width="16" height="21" viewBox="0 0 16 21"><defs><path id="a" d="M0 .061h15.884v20.535H0z"/></defs><g fill="none" fill-rule="evenodd"><mask id="b" fill="#fff"><use xlink:href="#a"/></mask><path fill="#FFCF00" d="M0 10.247c0-1.154.1-1.885 2.527-3.668C4.537 5.104 10.983.061 10.983.061v8.42h4.9v12.116H1.532c-.842 0-1.53-.68-1.53-1.506v-8.844z" mask="url(#b)"/><path fill="#D7B000" d="M11.491 8v4.918L2 19l12-3.673V8z"/><path fill="#1D1D1B" d="M6.561 8.762c.647-.72 1.59-.975 2.11-.568.518.407.413 1.322-.233 2.043-.646.722-1.59.976-2.108.569-.518-.408-.415-1.323.231-2.044"/></g></svg>
